<svg width="52" height="25" viewBox="0 0 52 25" fill="none" xmlns="http://www.w3.org/2000/svg">
<g clip-path="url(#clip0_40_51)">
<path d="M17.9968 7.39235C17.0503 7.66318 16.2825 7.96874 16.0022 8.18402C15.7747 8.3611 15.6975 8.48957 15.2953 9.35763C14.7956 10.441 14.6534 10.7708 14.5275 11.1458C14.4665 11.3264 14.4097 11.493 14.4015 11.5173C14.3893 11.5451 14.3365 11.5451 14.1903 11.5069C13.5768 11.3472 13.3453 11.3368 10.8672 11.3472C8.11279 11.3576 6.87372 11.316 5.30154 11.1632C4.30622 11.0625 3.52622 10.9201 3.18904 10.7743C3.12404 10.743 2.98997 10.6597 2.89247 10.5833C2.56747 10.3298 2.23029 10.2639 1.7956 10.3785C1.30404 10.5035 0.958723 10.8437 0.779973 11.375C0.410286 12.4583 0.491535 13.8785 0.97091 14.6805C1.2106 15.0798 1.64122 15.3125 2.14497 15.3125C2.49029 15.3125 2.63654 15.2673 2.88435 15.0798C2.98591 15.0035 3.14435 14.9062 3.23779 14.868C3.68466 14.6701 4.63935 14.5312 6.52028 14.3854C7.10528 14.3403 7.82435 14.3264 10.1562 14.3229C13.1503 14.316 13.4712 14.3021 14.0887 14.1667C14.304 14.1215 14.3893 14.1146 14.4015 14.1423C14.4097 14.1667 14.4584 14.3021 14.5031 14.4444C14.6453 14.8646 14.8037 15.2361 15.2872 16.2673C15.7137 17.1875 15.7503 17.25 15.9453 17.4132C16.1606 17.5972 16.5709 17.7986 17.1234 17.9861C18.2122 18.3611 18.8418 18.4826 19.0125 18.3507C19.2034 18.2014 19.0897 17.9861 18.464 17.3264C17.8831 16.7083 17.3875 16.0798 17.0422 15.5139C16.7822 15.0833 16.4125 14.3437 16.4125 14.2465C16.4125 14.2014 16.51 14.1944 17.1762 14.2153C17.5947 14.2257 18.9068 14.243 20.089 14.2535C25.2078 14.2986 27.0643 14.3507 28.9047 14.4965C30.034 14.5868 31.0822 14.6597 32.2968 14.7257C33.2718 14.7847 35.9937 14.7847 36.8062 14.7257C39.4022 14.5486 40.7875 14.4271 43.5703 14.1285C46.6578 13.7986 48.3965 13.5799 49.1562 13.4236C49.7778 13.2951 51.5693 12.875 51.6059 12.8472C51.6506 12.816 49.3512 12.2778 48.6403 12.1562C47.7425 12 44.1431 11.5694 41.9656 11.3542C38.0493 10.9687 36.5543 10.868 34.6125 10.868C32.9103 10.868 31.3381 10.9444 28.9656 11.1458C27.1293 11.3021 25.9959 11.3368 20.9828 11.3889C19.0856 11.4097 17.2778 11.4305 16.969 11.434C16.5465 11.441 16.4125 11.4305 16.4125 11.3958C16.4125 11.309 16.7131 10.6979 16.9853 10.243C17.3387 9.64235 17.8587 8.96874 18.4559 8.33332C18.72 8.05555 18.9678 7.76735 19.0125 7.68749C19.2684 7.23957 18.9028 7.13541 17.9968 7.39235Z" fill="black"/>
</g>
<defs>
<clipPath id="clip0_40_51">
<rect width="52" height="25" fill="white"/>
</clipPath>
</defs>
</svg>
