<svg width="115" height="43" viewBox="0 0 115 43" fill="none" xmlns="http://www.w3.org/2000/svg">
<path d="M18.72 17.208V27.576C18.396 27.468 18.036 27.396 17.676 27.36C17.316 27.288 16.956 27.288 16.596 27.288C16.164 27.288 15.768 27.36 15.372 27.432C14.976 27.504 14.544 27.576 14.004 27.576C6.624 27.576 1.008 21.42 1.008 14.184C1.008 6.948 6.624 0.791998 14.004 0.791998C14.544 0.791998 14.976 0.864 15.372 0.935999C15.768 1.008 16.164 1.08 16.596 1.08C17.316 1.08 18.072 1.008 18.72 0.791998V10.944C17.532 9.684 15.876 8.892 14.184 8.928C11.196 8.928 9.144 11.412 9.144 14.256C9.144 17.1 11.196 19.44 14.184 19.44C15.876 19.44 17.532 18.648 18.72 17.208ZM21.2639 27.288V16.884C22.7759 18.648 24.9719 20.88 27.4199 20.88C28.3199 20.88 29.3639 20.268 29.3639 19.224C29.3639 17.568 27.2759 16.668 25.1879 15.228C23.0639 13.824 20.9759 11.88 20.9759 8.28C20.9759 3.06 24.6119 0.791998 29.4719 0.791998C30.8759 0.791998 32.4959 1.548 33.0359 1.548C33.6119 1.548 34.1159 1.476 34.5119 1.08V9.468C33.9719 8.388 32.3159 6.624 30.9839 6.624C29.6519 6.624 29.1119 7.056 29.1119 7.992C29.1119 9.432 31.1999 10.188 33.3239 11.592C35.4119 12.996 37.4999 15.048 37.4999 19.188C37.4999 24.84 33.2879 27.576 28.0319 27.576C26.3039 27.576 24.6479 26.82 23.3159 26.82C22.5239 26.82 21.9119 26.964 21.2639 27.288ZM38.1119 8.928V1.368H55.8959V8.928C55.1759 8.568 54.1319 8.424 53.2319 8.424H51.0719V24.624C51.0719 25.416 51.2879 26.352 51.8999 27H42.1079C42.7199 26.352 42.9359 25.416 42.9359 24.624V8.424H40.7759C39.8759 8.424 38.8319 8.568 38.1119 8.928ZM5.908 32.07V33.092C5.348 32.742 4.816 32.532 4.046 32.532C2.226 32.532 0.938 33.918 0.938 35.57C0.938 37.222 2.226 38.608 4.046 38.608C4.788 38.608 5.362 38.398 5.838 38.16V39.112C5.796 39.084 5.74 39.056 5.67 39.042C5.614 39.028 5.544 39.028 5.46 39.028C5.292 39.028 5.082 39.07 4.816 39.126C4.55 39.168 4.242 39.224 3.864 39.224C2.016 39.224 0.322 37.712 0.322 35.57C0.322 33.428 2.016 31.916 3.864 31.916C4.382 31.916 4.718 31.972 4.97 32.028C5.222 32.098 5.376 32.154 5.53 32.154C5.684 32.154 5.81 32.126 5.908 32.07ZM12.5067 37.278V32.658C12.5067 32.49 12.4507 32.294 12.3947 32.14H13.2627C13.2067 32.294 13.1507 32.49 13.1507 32.658V37.124C13.1507 37.292 13.2067 37.488 13.2627 37.642C13.1087 37.67 12.9267 37.838 12.7587 37.978C11.9467 38.664 11.3167 39.224 10.1827 39.224C8.3347 39.224 7.0747 37.992 7.0747 36.032V32.658C7.0747 32.49 7.0187 32.294 6.9627 32.14H7.8307C7.7747 32.294 7.7187 32.49 7.7187 32.658V36.032C7.7187 37.446 8.6287 38.58 10.1687 38.58C11.0087 38.58 12.0447 37.964 12.5067 37.278ZM21.406 35.808H15.078C15.428 37.544 16.492 38.608 18.116 38.608C18.774 38.608 19.474 38.426 20.02 38.132V39.084C19.936 39.07 19.866 39.056 19.782 39.042C19.712 39.028 19.642 39.028 19.544 39.028C19.474 39.028 19.25 39.07 18.942 39.126C18.648 39.168 18.27 39.224 17.878 39.224C16.072 39.224 14.462 37.572 14.462 35.57C14.462 33.568 16.072 31.916 17.878 31.916C20.006 31.916 21.392 33.624 21.406 35.808ZM15.078 35.192H20.79C20.496 33.792 19.6 32.532 17.934 32.532C16.282 32.532 15.386 33.792 15.078 35.192ZM23.3893 34.394V38.482C23.3893 38.65 23.4453 38.846 23.5013 39H22.6333C22.6893 38.846 22.7453 38.65 22.7453 38.482V32.658C22.7453 32.49 22.6893 32.294 22.6333 32.14H23.3893V33.26H23.4173C23.7673 32.518 24.7053 32.14 25.4333 32.14C25.6013 32.14 25.7693 32.112 25.8953 32.056V32.868C25.7693 32.812 25.6013 32.784 25.4333 32.784C24.4953 32.784 23.7673 33.204 23.3893 34.394ZM26.4038 41.506V33.904C26.4038 33.736 26.3478 33.54 26.2918 33.386C26.4458 33.358 26.5998 33.274 26.6978 33.218C27.3418 32.854 27.9578 31.916 29.6798 31.916C31.6818 31.916 33.1098 33.484 33.1098 35.556C33.1098 37.768 31.4578 39.224 29.4978 39.224C28.6018 39.224 27.5378 38.748 27.0478 38.202V41.506C27.0478 41.674 27.1038 41.87 27.1598 42.024H26.2918C26.3478 41.87 26.4038 41.674 26.4038 41.506ZM27.0478 33.848V37.292C27.6358 38.062 28.5738 38.608 29.4978 38.608C31.1918 38.608 32.4938 37.306 32.4938 35.57C32.4938 33.834 31.1918 32.532 29.4978 32.532C28.5738 32.532 27.6358 33.078 27.0478 33.848ZM37.3471 38.608C39.0271 38.608 40.3291 37.222 40.3291 35.57C40.3291 33.918 39.0271 32.532 37.3471 32.532C35.6671 32.532 34.3651 33.918 34.3651 35.57C34.3651 37.222 35.6671 38.608 37.3471 38.608ZM37.3471 39.224C35.3031 39.224 33.7491 37.6 33.7491 35.57C33.7491 33.54 35.3031 31.916 37.3471 31.916C39.3911 31.916 40.9451 33.54 40.9451 35.57C40.9451 37.6 39.3911 39.224 37.3471 39.224ZM48.8269 31.958V32.952C48.3789 32.714 47.9589 32.532 47.4409 32.532C46.6569 32.532 46.1949 32.994 46.1949 33.75C46.1669 35.248 49.5129 34.772 49.5129 37.25C49.5129 38.328 48.5049 39.224 47.2729 39.224C46.4749 39.224 46.1109 38.944 45.8729 38.944C45.7049 38.944 45.5369 38.972 45.4109 39.028V38.02C45.8729 38.314 46.5729 38.608 47.1329 38.608C47.9589 38.608 48.8969 38.216 48.8969 37.236C48.9109 35.5 45.5789 35.864 45.5789 33.666C45.5789 32.616 46.4609 31.916 47.3989 31.916C47.5809 31.916 47.7769 31.944 47.9589 31.972C48.1269 32.014 48.2809 32.042 48.3649 32.042C48.5329 32.042 48.7009 32.014 48.8269 31.958ZM57.199 35.808H50.871C51.221 37.544 52.285 38.608 53.909 38.608C54.567 38.608 55.267 38.426 55.813 38.132V39.084C55.729 39.07 55.659 39.056 55.575 39.042C55.505 39.028 55.435 39.028 55.337 39.028C55.267 39.028 55.043 39.07 54.735 39.126C54.441 39.168 54.063 39.224 53.671 39.224C51.865 39.224 50.255 37.572 50.255 35.57C50.255 33.568 51.865 31.916 53.671 31.916C55.799 31.916 57.185 33.624 57.199 35.808ZM50.871 35.192H56.583C56.289 33.792 55.393 32.532 53.727 32.532C52.075 32.532 51.179 33.792 50.871 35.192ZM59.0703 33.862V38.482C59.0703 38.65 59.1263 38.846 59.1823 39H58.3143C58.3703 38.846 58.4263 38.65 58.4263 38.482V34.016C58.4263 33.848 58.3703 33.652 58.3143 33.498C58.4683 33.47 58.6503 33.302 58.8183 33.162C59.6303 32.476 60.2603 31.916 61.3943 31.916C63.2423 31.916 64.5023 33.148 64.5023 35.108V38.482C64.5023 38.65 64.5583 38.846 64.6143 39H63.7463C63.8023 38.846 63.8583 38.65 63.8583 38.482V35.108C63.8583 33.694 62.9483 32.56 61.4083 32.56C60.5683 32.56 59.5323 33.176 59.0703 33.862ZM67.1996 32.14H69.1736V32.784H67.1996V38.482C67.1996 38.65 67.2556 38.846 67.3116 39H66.4436C66.4996 38.846 66.5556 38.65 66.5556 38.482V32.784H65.7856L67.1996 30.824V32.14ZM71.236 39H70.368C70.424 38.846 70.48 38.65 70.48 38.482V32.658C70.48 32.49 70.424 32.294 70.368 32.14H71.124V38.482C71.124 38.65 71.18 38.846 71.236 39ZM71.264 30.334C71.264 30.6 71.068 30.796 70.802 30.796C70.55 30.796 70.34 30.6 70.34 30.334C70.34 30.082 70.55 29.872 70.802 29.872C71.068 29.872 71.264 30.082 71.264 30.334ZM73.1356 38.482V34.016C73.1356 33.848 73.0796 33.652 73.0236 33.498C73.1776 33.47 73.3596 33.302 73.5276 33.162C74.3396 32.476 74.9696 31.916 76.1036 31.916C77.2096 31.916 78.0916 32.378 78.6936 33.12C79.2116 32.518 80.0796 31.916 81.0736 31.916C82.7536 31.916 83.9996 33.148 83.9996 35.108V38.482C83.9996 38.65 84.0556 38.846 84.1116 39H83.2436C83.2996 38.846 83.3556 38.65 83.3556 38.482V35.22C83.3556 33.638 82.4596 32.56 81.1576 32.56C80.3456 32.56 79.4916 32.952 78.8896 33.862V38.482C78.8896 38.65 78.9456 38.846 79.0016 39H78.1336C78.1896 38.846 78.2456 38.65 78.2456 38.482V34.268C78.2456 33.47 77.4896 32.56 76.1176 32.56C75.2776 32.56 74.2416 33.176 73.7796 33.862V38.482C73.7796 38.65 73.8356 38.846 73.8916 39H73.0236C73.0796 38.846 73.1356 38.65 73.1356 38.482ZM92.199 35.808H85.871C86.221 37.544 87.285 38.608 88.909 38.608C89.567 38.608 90.267 38.426 90.813 38.132V39.084C90.729 39.07 90.659 39.056 90.575 39.042C90.505 39.028 90.435 39.028 90.337 39.028C90.267 39.028 90.043 39.07 89.735 39.126C89.441 39.168 89.063 39.224 88.671 39.224C86.865 39.224 85.255 37.572 85.255 35.57C85.255 33.568 86.865 31.916 88.671 31.916C90.799 31.916 92.185 33.624 92.199 35.808ZM85.871 35.192H91.583C91.289 33.792 90.393 32.532 88.727 32.532C87.075 32.532 86.179 33.792 85.871 35.192ZM94.0703 33.862V38.482C94.0703 38.65 94.1263 38.846 94.1823 39H93.3143C93.3703 38.846 93.4263 38.65 93.4263 38.482V34.016C93.4263 33.848 93.3703 33.652 93.3143 33.498C93.4683 33.47 93.6503 33.302 93.8183 33.162C94.6303 32.476 95.2603 31.916 96.3943 31.916C98.2423 31.916 99.5023 33.148 99.5023 35.108V38.482C99.5023 38.65 99.5583 38.846 99.6143 39H98.7463C98.8023 38.846 98.8583 38.65 98.8583 38.482V35.108C98.8583 33.694 97.9483 32.56 96.4083 32.56C95.5683 32.56 94.5323 33.176 94.0703 33.862ZM102.2 32.14H104.174V32.784H102.2V38.482C102.2 38.65 102.256 38.846 102.312 39H101.444C101.5 38.846 101.556 38.65 101.556 38.482V32.784H100.786L102.2 30.824V32.14ZM111.192 33.834V38.482C111.192 38.65 111.248 38.846 111.304 39H110.548V37.992H110.52C109.918 38.832 109.176 39.224 108.154 39.224C106.306 39.224 104.612 37.712 104.612 35.57C104.612 33.428 106.306 31.916 108.154 31.916C109.106 31.916 110.058 32.392 110.758 33.05C110.968 33.246 111.15 33.316 111.304 33.316C111.248 33.47 111.192 33.666 111.192 33.834ZM110.548 36.97V34.128C110.464 33.372 109.218 32.532 108.126 32.532C106.46 32.532 105.228 33.904 105.228 35.57C105.228 37.236 106.46 38.608 108.126 38.608C109.134 38.608 110.254 37.964 110.548 36.97ZM113.903 29.032V38.482C113.903 38.65 113.959 38.846 114.015 39H113.147C113.203 38.846 113.259 38.65 113.259 38.482V29.55C113.259 29.382 113.203 29.186 113.147 29.032H113.903Z" fill="black"/>
</svg>
