<svg width="121" height="53" viewBox="0 0 121 53" fill="none" xmlns="http://www.w3.org/2000/svg">
<path d="M18.72 19.208V29.576C18.396 29.468 18.036 29.396 17.676 29.36C17.316 29.288 16.956 29.288 16.596 29.288C16.164 29.288 15.768 29.36 15.372 29.432C14.976 29.504 14.544 29.576 14.004 29.576C6.624 29.576 1.008 23.42 1.008 16.184C1.008 8.948 6.624 2.792 14.004 2.792C14.544 2.792 14.976 2.864 15.372 2.936C15.768 3.008 16.164 3.08 16.596 3.08C17.316 3.08 18.072 3.008 18.72 2.792V12.944C17.532 11.684 15.876 10.892 14.184 10.928C11.196 10.928 9.144 13.412 9.144 16.256C9.144 19.1 11.196 21.44 14.184 21.44C15.876 21.44 17.532 20.648 18.72 19.208ZM21.2639 29.288V18.884C22.7759 20.648 24.9719 22.88 27.4199 22.88C28.3199 22.88 29.3639 22.268 29.3639 21.224C29.3639 19.568 27.2759 18.668 25.1879 17.228C23.0639 15.824 20.9759 13.88 20.9759 10.28C20.9759 5.06 24.6119 2.792 29.4719 2.792C30.8759 2.792 32.4959 3.548 33.0359 3.548C33.6119 3.548 34.1159 3.476 34.5119 3.08V11.468C33.9719 10.388 32.3159 8.624 30.9839 8.624C29.6519 8.624 29.1119 9.056 29.1119 9.992C29.1119 11.432 31.1999 12.188 33.3239 13.592C35.4119 14.996 37.4999 17.048 37.4999 21.188C37.4999 26.84 33.2879 29.576 28.0319 29.576C26.3039 29.576 24.6479 28.82 23.3159 28.82C22.5239 28.82 21.9119 28.964 21.2639 29.288ZM38.1119 10.928V3.368H55.8959V10.928C55.1759 10.568 54.1319 10.424 53.2319 10.424H51.0719V26.624C51.0719 27.416 51.2879 28.352 51.8999 29H42.1079C42.7199 28.352 42.9359 27.416 42.9359 26.624V10.424H40.7759C39.8759 10.424 38.8319 10.568 38.1119 10.928ZM5.908 34.07V35.092C5.348 34.742 4.816 34.532 4.046 34.532C2.226 34.532 0.938 35.918 0.938 37.57C0.938 39.222 2.226 40.608 4.046 40.608C4.788 40.608 5.362 40.398 5.838 40.16V41.112C5.796 41.084 5.74 41.056 5.67 41.042C5.614 41.028 5.544 41.028 5.46 41.028C5.292 41.028 5.082 41.07 4.816 41.126C4.55 41.168 4.242 41.224 3.864 41.224C2.016 41.224 0.322 39.712 0.322 37.57C0.322 35.428 2.016 33.916 3.864 33.916C4.382 33.916 4.718 33.972 4.97 34.028C5.222 34.098 5.376 34.154 5.53 34.154C5.684 34.154 5.81 34.126 5.908 34.07ZM12.5067 39.278V34.658C12.5067 34.49 12.4507 34.294 12.3947 34.14H13.2627C13.2067 34.294 13.1507 34.49 13.1507 34.658V39.124C13.1507 39.292 13.2067 39.488 13.2627 39.642C13.1087 39.67 12.9267 39.838 12.7587 39.978C11.9467 40.664 11.3167 41.224 10.1827 41.224C8.3347 41.224 7.0747 39.992 7.0747 38.032V34.658C7.0747 34.49 7.0187 34.294 6.9627 34.14H7.8307C7.7747 34.294 7.7187 34.49 7.7187 34.658V38.032C7.7187 39.446 8.6287 40.58 10.1687 40.58C11.0087 40.58 12.0447 39.964 12.5067 39.278ZM21.406 37.808H15.078C15.428 39.544 16.492 40.608 18.116 40.608C18.774 40.608 19.474 40.426 20.02 40.132V41.084C19.936 41.07 19.866 41.056 19.782 41.042C19.712 41.028 19.642 41.028 19.544 41.028C19.474 41.028 19.25 41.07 18.942 41.126C18.648 41.168 18.27 41.224 17.878 41.224C16.072 41.224 14.462 39.572 14.462 37.57C14.462 35.568 16.072 33.916 17.878 33.916C20.006 33.916 21.392 35.624 21.406 37.808ZM15.078 37.192H20.79C20.496 35.792 19.6 34.532 17.934 34.532C16.282 34.532 15.386 35.792 15.078 37.192ZM23.3893 36.394V40.482C23.3893 40.65 23.4453 40.846 23.5013 41H22.6333C22.6893 40.846 22.7453 40.65 22.7453 40.482V34.658C22.7453 34.49 22.6893 34.294 22.6333 34.14H23.3893V35.26H23.4173C23.7673 34.518 24.7053 34.14 25.4333 34.14C25.6013 34.14 25.7693 34.112 25.8953 34.056V34.868C25.7693 34.812 25.6013 34.784 25.4333 34.784C24.4953 34.784 23.7673 35.204 23.3893 36.394ZM26.4038 43.506V35.904C26.4038 35.736 26.3478 35.54 26.2918 35.386C26.4458 35.358 26.5998 35.274 26.6978 35.218C27.3418 34.854 27.9578 33.916 29.6798 33.916C31.6818 33.916 33.1098 35.484 33.1098 37.556C33.1098 39.768 31.4578 41.224 29.4978 41.224C28.6018 41.224 27.5378 40.748 27.0478 40.202V43.506C27.0478 43.674 27.1038 43.87 27.1598 44.024H26.2918C26.3478 43.87 26.4038 43.674 26.4038 43.506ZM27.0478 35.848V39.292C27.6358 40.062 28.5738 40.608 29.4978 40.608C31.1918 40.608 32.4938 39.306 32.4938 37.57C32.4938 35.834 31.1918 34.532 29.4978 34.532C28.5738 34.532 27.6358 35.078 27.0478 35.848ZM37.3471 40.608C39.0271 40.608 40.3291 39.222 40.3291 37.57C40.3291 35.918 39.0271 34.532 37.3471 34.532C35.6671 34.532 34.3651 35.918 34.3651 37.57C34.3651 39.222 35.6671 40.608 37.3471 40.608ZM37.3471 41.224C35.3031 41.224 33.7491 39.6 33.7491 37.57C33.7491 35.54 35.3031 33.916 37.3471 33.916C39.3911 33.916 40.9451 35.54 40.9451 37.57C40.9451 39.6 39.3911 41.224 37.3471 41.224ZM48.8269 33.958V34.952C48.3789 34.714 47.9589 34.532 47.4409 34.532C46.6569 34.532 46.1949 34.994 46.1949 35.75C46.1669 37.248 49.5129 36.772 49.5129 39.25C49.5129 40.328 48.5049 41.224 47.2729 41.224C46.4749 41.224 46.1109 40.944 45.8729 40.944C45.7049 40.944 45.5369 40.972 45.4109 41.028V40.02C45.8729 40.314 46.5729 40.608 47.1329 40.608C47.9589 40.608 48.8969 40.216 48.8969 39.236C48.9109 37.5 45.5789 37.864 45.5789 35.666C45.5789 34.616 46.4609 33.916 47.3989 33.916C47.5809 33.916 47.7769 33.944 47.9589 33.972C48.1269 34.014 48.2809 34.042 48.3649 34.042C48.5329 34.042 48.7009 34.014 48.8269 33.958ZM57.199 37.808H50.871C51.221 39.544 52.285 40.608 53.909 40.608C54.567 40.608 55.267 40.426 55.813 40.132V41.084C55.729 41.07 55.659 41.056 55.575 41.042C55.505 41.028 55.435 41.028 55.337 41.028C55.267 41.028 55.043 41.07 54.735 41.126C54.441 41.168 54.063 41.224 53.671 41.224C51.865 41.224 50.255 39.572 50.255 37.57C50.255 35.568 51.865 33.916 53.671 33.916C55.799 33.916 57.185 35.624 57.199 37.808ZM50.871 37.192H56.583C56.289 35.792 55.393 34.532 53.727 34.532C52.075 34.532 51.179 35.792 50.871 37.192ZM59.0703 35.862V40.482C59.0703 40.65 59.1263 40.846 59.1823 41H58.3143C58.3703 40.846 58.4263 40.65 58.4263 40.482V36.016C58.4263 35.848 58.3703 35.652 58.3143 35.498C58.4683 35.47 58.6503 35.302 58.8183 35.162C59.6303 34.476 60.2603 33.916 61.3943 33.916C63.2423 33.916 64.5023 35.148 64.5023 37.108V40.482C64.5023 40.65 64.5583 40.846 64.6143 41H63.7463C63.8023 40.846 63.8583 40.65 63.8583 40.482V37.108C63.8583 35.694 62.9483 34.56 61.4083 34.56C60.5683 34.56 59.5323 35.176 59.0703 35.862ZM67.1996 34.14H69.1736V34.784H67.1996V40.482C67.1996 40.65 67.2556 40.846 67.3116 41H66.4436C66.4996 40.846 66.5556 40.65 66.5556 40.482V34.784H65.7856L67.1996 32.824V34.14ZM71.236 41H70.368C70.424 40.846 70.48 40.65 70.48 40.482V34.658C70.48 34.49 70.424 34.294 70.368 34.14H71.124V40.482C71.124 40.65 71.18 40.846 71.236 41ZM71.264 32.334C71.264 32.6 71.068 32.796 70.802 32.796C70.55 32.796 70.34 32.6 70.34 32.334C70.34 32.082 70.55 31.872 70.802 31.872C71.068 31.872 71.264 32.082 71.264 32.334ZM73.1356 40.482V36.016C73.1356 35.848 73.0796 35.652 73.0236 35.498C73.1776 35.47 73.3596 35.302 73.5276 35.162C74.3396 34.476 74.9696 33.916 76.1036 33.916C77.2096 33.916 78.0916 34.378 78.6936 35.12C79.2116 34.518 80.0796 33.916 81.0736 33.916C82.7536 33.916 83.9996 35.148 83.9996 37.108V40.482C83.9996 40.65 84.0556 40.846 84.1116 41H83.2436C83.2996 40.846 83.3556 40.65 83.3556 40.482V37.22C83.3556 35.638 82.4596 34.56 81.1576 34.56C80.3456 34.56 79.4916 34.952 78.8896 35.862V40.482C78.8896 40.65 78.9456 40.846 79.0016 41H78.1336C78.1896 40.846 78.2456 40.65 78.2456 40.482V36.268C78.2456 35.47 77.4896 34.56 76.1176 34.56C75.2776 34.56 74.2416 35.176 73.7796 35.862V40.482C73.7796 40.65 73.8356 40.846 73.8916 41H73.0236C73.0796 40.846 73.1356 40.65 73.1356 40.482ZM92.199 37.808H85.871C86.221 39.544 87.285 40.608 88.909 40.608C89.567 40.608 90.267 40.426 90.813 40.132V41.084C90.729 41.07 90.659 41.056 90.575 41.042C90.505 41.028 90.435 41.028 90.337 41.028C90.267 41.028 90.043 41.07 89.735 41.126C89.441 41.168 89.063 41.224 88.671 41.224C86.865 41.224 85.255 39.572 85.255 37.57C85.255 35.568 86.865 33.916 88.671 33.916C90.799 33.916 92.185 35.624 92.199 37.808ZM85.871 37.192H91.583C91.289 35.792 90.393 34.532 88.727 34.532C87.075 34.532 86.179 35.792 85.871 37.192ZM94.0703 35.862V40.482C94.0703 40.65 94.1263 40.846 94.1823 41H93.3143C93.3703 40.846 93.4263 40.65 93.4263 40.482V36.016C93.4263 35.848 93.3703 35.652 93.3143 35.498C93.4683 35.47 93.6503 35.302 93.8183 35.162C94.6303 34.476 95.2603 33.916 96.3943 33.916C98.2423 33.916 99.5023 35.148 99.5023 37.108V40.482C99.5023 40.65 99.5583 40.846 99.6143 41H98.7463C98.8023 40.846 98.8583 40.65 98.8583 40.482V37.108C98.8583 35.694 97.9483 34.56 96.4083 34.56C95.5683 34.56 94.5323 35.176 94.0703 35.862ZM102.2 34.14H104.174V34.784H102.2V40.482C102.2 40.65 102.256 40.846 102.312 41H101.444C101.5 40.846 101.556 40.65 101.556 40.482V34.784H100.786L102.2 32.824V34.14ZM111.192 35.834V40.482C111.192 40.65 111.248 40.846 111.304 41H110.548V39.992H110.52C109.918 40.832 109.176 41.224 108.154 41.224C106.306 41.224 104.612 39.712 104.612 37.57C104.612 35.428 106.306 33.916 108.154 33.916C109.106 33.916 110.058 34.392 110.758 35.05C110.968 35.246 111.15 35.316 111.304 35.316C111.248 35.47 111.192 35.666 111.192 35.834ZM110.548 38.97V36.128C110.464 35.372 109.218 34.532 108.126 34.532C106.46 34.532 105.228 35.904 105.228 37.57C105.228 39.236 106.46 40.608 108.126 40.608C109.134 40.608 110.254 39.964 110.548 38.97ZM113.903 31.032V40.482C113.903 40.65 113.959 40.846 114.015 41H113.147C113.203 40.846 113.259 40.65 113.259 40.482V31.55C113.259 31.382 113.203 31.186 113.147 31.032H113.903Z" fill="black"/>
<g clip-path="url(#clip0_41_51)">
<path d="M79.9968 10.3924C79.0503 10.6632 78.2825 10.9687 78.0022 11.184C77.7747 11.3611 77.6975 11.4896 77.2953 12.3576C76.7956 13.441 76.6534 13.7708 76.5275 14.1458C76.4665 14.3264 76.4097 14.493 76.4015 14.5173C76.3893 14.5451 76.3365 14.5451 76.1903 14.5069C75.5768 14.3472 75.3453 14.3368 72.8672 14.3472C70.1128 14.3576 68.8737 14.316 67.3015 14.1632C66.3062 14.0625 65.5262 13.9201 65.189 13.7743C65.124 13.743 64.99 13.6597 64.8925 13.5833C64.5675 13.3298 64.2303 13.2639 63.7956 13.3785C63.304 13.5035 62.9587 13.8437 62.78 14.375C62.4103 15.4583 62.4915 16.8785 62.9709 17.6805C63.2106 18.0798 63.6412 18.3125 64.145 18.3125C64.4903 18.3125 64.6365 18.2673 64.8843 18.0798C64.9859 18.0035 65.1443 17.9062 65.2378 17.868C65.6847 17.6701 66.6393 17.5312 68.5203 17.3854C69.1053 17.3403 69.8243 17.3264 72.1562 17.3229C75.1503 17.316 75.4712 17.3021 76.0887 17.1667C76.304 17.1215 76.3893 17.1146 76.4015 17.1423C76.4097 17.1667 76.4584 17.3021 76.5031 17.4444C76.6453 17.8646 76.8037 18.2361 77.2872 19.2673C77.7137 20.1875 77.7503 20.25 77.9453 20.4132C78.1606 20.5972 78.5709 20.7986 79.1234 20.9861C80.2122 21.3611 80.8418 21.4826 81.0125 21.3507C81.2034 21.2014 81.0897 20.9861 80.464 20.3264C79.8831 19.7083 79.3875 19.0798 79.0422 18.5139C78.7822 18.0833 78.4125 17.3437 78.4125 17.2465C78.4125 17.2014 78.51 17.1944 79.1762 17.2153C79.5947 17.2257 80.9068 17.243 82.089 17.2535C87.2078 17.2986 89.0643 17.3507 90.9047 17.4965C92.034 17.5868 93.0822 17.6597 94.2968 17.7257C95.2718 17.7847 97.9937 17.7847 98.8062 17.7257C101.402 17.5486 102.787 17.4271 105.57 17.1285C108.658 16.7986 110.397 16.5799 111.156 16.4236C111.778 16.2951 113.569 15.875 113.606 15.8472C113.651 15.816 111.351 15.2778 110.64 15.1562C109.742 15 106.143 14.5694 103.966 14.3542C100.049 13.9687 98.5543 13.868 96.6125 13.868C94.9103 13.868 93.3381 13.9444 90.9656 14.1458C89.1293 14.3021 87.9959 14.3368 82.9828 14.3889C81.0856 14.4097 79.2778 14.4305 78.969 14.434C78.5465 14.441 78.4125 14.4305 78.4125 14.3958C78.4125 14.309 78.7131 13.6979 78.9853 13.243C79.3387 12.6424 79.8587 11.9687 80.4559 11.3333C80.72 11.0555 80.9678 10.7674 81.0125 10.6875C81.2684 10.2396 80.9028 10.1354 79.9968 10.3924Z" fill="black"/>
</g>
<defs>
<clipPath id="clip0_41_51">
<rect width="52" height="25" fill="white" transform="translate(62 3)"/>
</clipPath>
</defs>
</svg>
